<svg width="26" height="26" viewBox="0 0 26 26" fill="none" xmlns="http://www.w3.org/2000/svg">
<path d="M13 0C20.1795 0 26 5.8205 26 13C26 20.1795 20.1795 26 13 26C5.8205 26 0 20.1795 0 13C0 5.8205 5.8205 0 13 0ZM20.2266 8.31348C19.8473 7.91213 19.2149 7.89428 18.8135 8.27344L10.5576 16.0693L6.74316 11.8311C6.3737 11.4206 5.74155 11.3874 5.33105 11.7568C4.9206 12.1263 4.88739 12.7585 5.25684 13.1689L10.4424 18.9307L11.1865 18.2266L20.1865 9.72656C20.5879 9.34733 20.6057 8.71494 20.2266 8.31348Z" fill="#5C5F8A"/>
</svg>
