<svg width="18" height="18" viewBox="0 0 18 18" fill="none" xmlns="http://www.w3.org/2000/svg">
<path d="M14.3978 5.09375C13.797 3.27386 12.0802 2 10.125 2C8.33331 2 6.75183 3.04279 6.0293 4.64258C4.57617 4.79108 3.39532 5.86627 3.08295 7.26465C1.35864 7.41351 0 8.86243 0 10.625C0 12.4861 1.51428 14 3.375 14H6.61929C7.0333 14 7.36929 13.664 7.36929 13.25C7.36929 12.836 7.0333 12.5 6.61929 12.5H3.375C2.34119 12.5 1.5 11.6588 1.5 10.625C1.5 9.59119 2.34119 8.75 3.375 8.75C3.47131 8.75 3.55096 8.75568 3.61157 8.76721C4.01807 8.84375 4.41046 8.57568 4.48718 8.16846C4.49744 8.11481 4.50073 8.06116 4.49927 8.00861C4.49927 8.00604 4.5 8.00293 4.5 8C4.5 6.96619 5.34119 6.125 6.375 6.125L6.39825 6.12207C6.41034 6.12427 6.42188 6.12354 6.43341 6.12537C6.45978 6.12921 6.4856 6.13177 6.51141 6.13287C6.53503 6.13397 6.55884 6.13434 6.58191 6.13287C6.60754 6.13141 6.63263 6.12866 6.65772 6.125C6.68097 6.12134 6.70386 6.11713 6.72638 6.11145C6.75073 6.10559 6.77399 6.09808 6.79761 6.08929C6.8194 6.08142 6.84082 6.07318 6.86133 6.06348C6.88422 6.05267 6.90601 6.04059 6.92743 6.02795C6.94684 6.01624 6.9657 6.00433 6.98401 5.99078C7.00433 5.97577 7.02374 5.96002 7.04242 5.94318C7.05981 5.9278 7.07629 5.91205 7.09204 5.89484C7.10852 5.87671 7.12427 5.85803 7.13892 5.83807C7.15393 5.81866 7.16766 5.79834 7.18085 5.77692C7.1933 5.75678 7.2041 5.73608 7.21454 5.71466C7.22626 5.69104 7.23669 5.66705 7.24567 5.6416C7.24988 5.6308 7.25592 5.62091 7.25922 5.60974C7.65344 4.34796 8.80499 3.5 10.125 3.5C11.5499 3.5 12.7883 4.51331 13.0684 5.90894C13.0717 5.92542 13.0781 5.9408 13.0827 5.95691C13.0878 5.9765 13.0928 5.99646 13.0999 6.01514C13.1096 6.04205 13.1217 6.06769 13.134 6.09277C13.1415 6.10815 13.1483 6.12427 13.1569 6.13892C13.1737 6.16766 13.1937 6.19476 13.2138 6.22058C13.2213 6.23029 13.2277 6.24091 13.2356 6.24988C13.2653 6.2843 13.2979 6.31616 13.3328 6.34436C13.3407 6.35077 13.3493 6.35516 13.3575 6.36121C13.3859 6.38226 13.4149 6.40204 13.446 6.41907C13.4606 6.42694 13.4764 6.4328 13.4918 6.43994C13.5187 6.45239 13.5461 6.46393 13.5747 6.47345C13.5908 6.47858 13.6073 6.48242 13.6238 6.48645C13.6542 6.49396 13.6849 6.49963 13.7164 6.5033C13.7254 6.50458 13.7336 6.50751 13.7426 6.50824C15.2888 6.63495 16.5 7.94891 16.5 9.5C16.5 11.1542 15.1542 12.5 13.5 12.5C13.086 12.5 12.75 12.836 12.75 13.25C12.75 13.664 13.086 14 13.5 14C15.9814 14 18 11.9814 18 9.5C18 7.35583 16.4553 5.51709 14.3978 5.09375Z" fill="#15ACD2"/>
<path d="M10.875 9.36055L11.8447 10.3303C12.1373 10.6231 12.6127 10.6231 12.9053 10.3303C13.1981 10.0373 13.1981 9.5627 12.9053 9.26973L10.6553 7.01973C10.6192 6.98384 10.5802 6.9518 10.539 6.92451C10.5057 6.90236 10.47 6.88514 10.4341 6.86903C10.4253 6.86519 10.4178 6.85969 10.4092 6.85585C10.3709 6.8401 10.3308 6.82966 10.2911 6.82033C10.284 6.81868 10.2772 6.81538 10.2699 6.81392C10.2217 6.80495 10.1734 6.8 10.125 6.8C10.1217 6.8 10.1186 6.80073 10.1153 6.8011C10.0703 6.80183 10.0252 6.80568 9.98073 6.81428C9.97469 6.81538 9.96901 6.81795 9.96297 6.81941C9.92104 6.82893 9.87947 6.84047 9.83919 6.85695L9.83443 6.85969C9.7762 6.88405 9.72182 6.91847 9.67018 6.9582C9.65663 6.96882 9.64345 6.97926 9.63082 6.99043C9.6191 7.00068 9.6061 7.00856 9.59474 7.01973L7.34475 9.26973C7.05196 9.5627 7.05196 10.0373 7.34475 10.3303C7.63735 10.6231 8.11269 10.6231 8.40529 10.3303L9.37502 9.36055L9.37502 16.25C9.37502 16.664 9.71102 17 10.125 17C10.539 17 10.875 16.664 10.875 16.25L10.875 9.36055Z" fill="#15ACD2"/>
</svg>
