<svg width="26" height="26" viewBox="0 0 26 26" fill="none" xmlns="http://www.w3.org/2000/svg">
<path d="M13 0C20.1795 0 26 5.8205 26 13C26 20.1795 20.1795 26 13 26C5.8205 26 0 20.1795 0 13C0 5.8205 5.8205 0 13 0ZM13 4.5C12.4924 4.5 12.0539 4.75073 11.7725 5.11719L11.7852 5.10156C11.776 5.11141 11.7617 5.12579 11.7432 5.14551C11.7063 5.18468 11.6534 5.24124 11.5859 5.3125C11.4508 5.45518 11.2596 5.65648 11.0312 5.89648C10.5745 6.37661 9.96917 7.01199 9.36523 7.64551C8.76125 8.27907 8.15775 8.91129 7.70605 9.38477C7.48049 9.6212 7.29269 9.81819 7.16113 9.95605C7.09532 10.025 7.04306 10.0793 7.00781 10.1162C6.99029 10.1346 6.97686 10.1487 6.96777 10.1582C6.96348 10.1627 6.96031 10.1665 6.95801 10.1689L6.95312 10.1738C6.34913 10.8104 6.34861 11.8334 6.95312 12.4697L7.07324 12.584C7.69609 13.1183 8.62383 13.0806 9.20312 12.4697L11.4219 10.1309V19.8574C11.4219 20.7369 12.102 21.5 13 21.5C13.8987 21.5 14.5781 20.7367 14.5781 19.8574V10.1309L16.7969 12.4697V12.4688C17.4147 13.1207 18.4287 13.121 19.0469 12.4697L19.1533 12.3457C19.6489 11.7067 19.613 10.7705 19.0469 10.1738H19.0459V10.1729H19.0449C19.0444 10.1723 19.044 10.171 19.043 10.1699C19.0407 10.1675 19.0368 10.1639 19.0322 10.1592C19.0231 10.1496 19.0099 10.1348 18.9922 10.1162C18.9568 10.079 18.9049 10.0244 18.8389 9.95508C18.7065 9.81611 18.5171 9.61736 18.29 9.37891C17.836 8.90202 17.2301 8.26579 16.623 7.62793C16.016 6.99004 15.4073 6.35107 14.9482 5.86816C14.7187 5.62669 14.5265 5.4236 14.3906 5.28027L14.1924 5.07129C13.9098 4.72907 13.4858 4.5 13 4.5Z" fill="#5C5F8A"/>
</svg>
